<svg xmlns="http://www.w3.org/2000/svg" width="340" height="237" viewBox="0 0 340 237">
  <g id="undraw_forgot_password_re_hxwm" transform="translate(0 0)">
    <path id="Path_67" data-name="Path 67" d="M440.734,435.989c11.652-21.5,33.878-38.007,57.406-36.416a116.884,116.884,0,0,0-28.57,72.261c-.386,10.364.213,21.933-6.348,29.693-4.082,4.829-10.321,7.167-16.456,7.658s-12.269-.672-18.322-1.83l-1.468.473C426.418,483.1,429.082,457.488,440.734,435.989Z" transform="translate(-318.776 -299.593)" fill="#f0f0f0"/>
    <path id="Path_68" data-name="Path 68" d="M498.156,399.318a94.931,94.931,0,0,0-41.342,41.352,43.238,43.238,0,0,0-4.377,12.312,25.156,25.156,0,0,0,1.193,12.6c1.292,3.77,3.031,7.469,3.427,11.5a15.174,15.174,0,0,1-3.758,11.382c-3.285,3.86-7.7,6.252-12.087,8.434-4.876,2.423-9.977,4.858-13.43,9.38-.418.548-1.2-.165-.787-.712,6.008-7.867,16.293-9.346,23.425-15.683,3.328-2.957,5.826-6.984,5.669-11.7-.138-4.126-1.927-7.942-3.267-11.747a26.819,26.819,0,0,1-1.6-12.272,40.1,40.1,0,0,1,3.909-12.443,96.272,96.272,0,0,1,42.693-43.431c.6-.3.934.73.337,1.031Z" transform="translate(-318.756 -298.821)" fill="#fff"/>
    <path id="Path_69" data-name="Path 69" d="M507.833,464.308a15.063,15.063,0,0,1-4.2-18.4.524.524,0,0,1,.939.467,13.945,13.945,0,0,0,3.944,17.107C509.054,463.894,508.372,464.717,507.833,464.308Z" transform="translate(-367.108 -328.439)" fill="#fff"/>
    <path id="Path_70" data-name="Path 70" d="M498.4,555.743a26.589,26.589,0,0,0,17-10.163c.42-.546,1.206.167.787.712a27.65,27.65,0,0,1-17.71,10.538c-.663.1-.736-.988-.076-1.087Z" transform="translate(-364.417 -390.806)" fill="#fff"/>
    <path id="Path_71" data-name="Path 71" d="M573.375,432.466a7.68,7.68,0,0,0,7.048,2.635c.662-.108.733.979.076,1.087a8.6,8.6,0,0,1-7.8-2.9.583.583,0,0,1-.054-.769A.505.505,0,0,1,573.375,432.466Z" transform="translate(-412.344 -320.139)" fill="#fff"/>
    <path id="Path_72" data-name="Path 72" d="M543.323,558.069c-.411.08-.823.16-1.238.248a100.07,100.07,0,0,0-16.236,4.707c-.411.15-.825.308-1.231.471a109.036,109.036,0,0,0-45.583,34.235c-4.717,6.044-9.372,12.992-15.536,16.933a18,18,0,0,1-1.984,1.128l-35.506-15.448c-.064-.078-.132-.147-.2-.225l-1.445-.549c.161-.239.333-.482.494-.721.093-.139.194-.274.287-.413.064-.092.129-.183.182-.269.021-.031.043-.061.061-.083.053-.086.111-.161.161-.239q1.437-2.049,2.906-4.084c0-.008,0-.008.015-.014a161.006,161.006,0,0,1,25.384-28.174c.286-.244.576-.5.879-.733a101.32,101.32,0,0,1,13.713-9.729,88.036,88.036,0,0,1,8.134-4.219,71.8,71.8,0,0,1,22.595-6.044c15.524-1.512,31.336,2.2,43.242,12.429C542.725,557.54,543.022,557.8,543.323,558.069Z" transform="translate(-317.145 -390.268)" fill="#f0f0f0"/>
    <path id="Path_73" data-name="Path 73" d="M543.944,576.9a88.908,88.908,0,0,0-56.745,6.91,39.8,39.8,0,0,0-10.562,7.067,24.283,24.283,0,0,0-6.278,10.812c-1.132,3.826-1.867,7.877-3.866,11.348a14.038,14.038,0,0,1-9.534,6.714c-4.838,1.008-9.733.132-14.492-.9-5.284-1.145-10.754-2.421-16.107-.992-.649.173-.867-.893-.219-1.065,9.313-2.487,18.373,2.827,27.705,2.271,4.354-.259,8.661-1.9,11.243-5.764,2.258-3.381,3.02-7.558,4.134-11.443a26.031,26.031,0,0,1,5.763-10.811,36.984,36.984,0,0,1,10.264-7.467,87.023,87.023,0,0,1,26.932-8.6,90.167,90.167,0,0,1,32.085.888c.654.137.326,1.172-.323,1.036Z" transform="translate(-318.032 -408.658)" fill="#fff"/>
    <path id="Path_74" data-name="Path 74" d="M612.158,562.989a14.877,14.877,0,0,1,7.2-17.345.541.541,0,0,1,.481.966,13.777,13.777,0,0,0-6.671,16.149C613.37,563.429,612.353,563.655,612.158,562.989Z" transform="translate(-437.428 -390.931)" fill="#fff"/>
    <path id="Path_75" data-name="Path 75" d="M550.02,642.431a25.746,25.746,0,0,0,19.407,2.62c.649-.171.868.895.219,1.065a26.781,26.781,0,0,1-20.19-2.77C548.87,643.008,549.437,642.094,550.02,642.431Z" transform="translate(-397.364 -451.423)" fill="#fff"/>
    <path id="Path_76" data-name="Path 76" d="M694.554,575.359a8.3,8.3,0,0,0,4.114,6.555c.591.331.023,1.245-.563.916a9.3,9.3,0,0,1-4.567-7.241.564.564,0,0,1,.4-.648.523.523,0,0,1,.617.418Z" transform="translate(-490.099 -409.275)" fill="#fff"/>
    <path id="Path_77" data-name="Path 77" d="M282.924,540.6c-4.973-25.219-11.188-33.627-11.188-33.627l-2.375-1.931-2.856-2.327.014-.3-.677-.241-.159-.13-.261-.21-.042.047-.089.1-12.922-4.607-16.394-5.841-7.591-10.35a12.92,12.92,0,0,0-10.5-5.374l-24.244.188a12.8,12.8,0,0,0-8.832,3.675l-15.935,15.5-24.83,12.439-.042-.044-.261.2-3.836,1.924.158.864-2.375,1.8s-6.216,7.823-11.188,31.289c-1.265,5.971-1.888,18.779-2.112,34.562a6.183,6.183,0,0,0,1.651,4.317,5.614,5.614,0,0,0,4.09,1.8H279.3a5.615,5.615,0,0,0,4.088-1.795,6.184,6.184,0,0,0,1.653-4.312C284.823,561.03,284.2,547.073,282.924,540.6Z" transform="translate(-124.382 -347.312)" fill="#136afb"/>
    <path id="Path_78" data-name="Path 78" d="M580.573,191.732c-10.745,0-19.455,9.136-19.455,20.406s8.71,20.406,19.455,20.406H725.56c10.745,0,19.455-9.136,19.455-20.406s-8.71-20.406-19.455-20.406Z" transform="translate(-405.015 -169.739)" fill="#e5e5e5"/>
    <path id="Path_79" data-name="Path 79" d="M587.651,202.747c-8.57,0-15.518,7.287-15.518,16.276s6.948,16.276,15.518,16.276H732.639c8.57,0,15.518-7.287,15.518-16.276s-6.948-16.276-15.518-16.276Z" transform="translate(-412.094 -176.625)" fill="#fff"/>
    <ellipse id="ab6171fa-7d69-4734-b81c-8dff60f9761b" cx="31.762" cy="33.315" rx="31.762" ry="33.315" transform="translate(53.422 52.31)" fill="#feb7b7"/>
    <path id="Path_80" data-name="Path 80" d="M339.242,444.4q-.2-.47-.406-.943c.052,0,.1.01.155.011Z" transform="translate(-262.184 -327.091)" fill="#2f2e41"/>
    <path id="Path_81" data-name="Path 81" d="M249,250.31c1.606-1.344,3.484-2.581,5.538-2.511s4.137,2.015,3.711,4.124c7.787-14.462,24.347-20.975,39.28-15.449,5.1,1.889,10.111,5.668,11.283,11.211.3,1.423.366,2.983,1.213,4.139a4.365,4.365,0,0,0,4.794,1.274l.05-.016a1.456,1.456,0,0,1,1.625.466,1.636,1.636,0,0,1,.188,1.756l-1.444,2.825a11.052,11.052,0,0,0,5.514-.123,1.466,1.466,0,0,1,1.619.635,1.636,1.636,0,0,1-.027,1.813c-4.763,6.859-12.72,11.287-20.839,11.235-5.771-.037-11.6-2.123-17.218-.731a15.122,15.122,0,0,0-10.049,8.489,16.381,16.381,0,0,0-.011,13.533c-1.725-1.979-5.061-1.511-6.826.43s-2.222,4.838-2.044,7.513c.272,4.092,1.8,7.949,3.412,11.7-13.511-.446-26.291-10.387-30.592-23.833C233.853,275.289,238.381,259.191,249,250.31Z" transform="translate(-196.457 -196.485)" fill="#2f2e41"/>
    <path id="Path_82" data-name="Path 82" d="M87.464,495.253l8.909,50.84,5.345.488Z" transform="translate(-56.202 -309.581)" opacity="0.2"/>
    <path id="Path_83" data-name="Path 83" d="M336.382,485.026l-8.909,54.637-5.345.525Z" transform="translate(-206.99 -303.188)" opacity="0.2"/>
    <path id="Path_84" data-name="Path 84" d="M260.442,169.784a3.123,3.123,0,0,1-4.238-1.949,3.436,3.436,0,0,1,1.685-4.6,3.117,3.117,0,0,1,4.257,2A3.369,3.369,0,0,1,260.442,169.784Zm-3.272-10.3-1.358.595a1.436,1.436,0,0,1-1.861-.716l-.067-.138c-1.461-2.764-1.629-6.124-.495-9.98,1.05-3.459,1.487-5.892.609-8.1-1.015-2.548-3.181-3.347-5.943-2.19a4.994,4.994,0,0,0-2.256,1.339,1.89,1.89,0,0,1-1.4.6,1.832,1.832,0,0,1-1.339-.616,2.077,2.077,0,0,1-.013-2.736,14.846,14.846,0,0,1,5.02-3.616c5.936-2.6,8.924,1.238,10.291,4.673,1.337,3.36.585,6.477-.624,10.514-1.013,3.354-.954,5.84.2,8.312a1.6,1.6,0,0,1,.038,1.2,1.5,1.5,0,0,1-.8.859Z" transform="translate(-200.306 -133.069)" fill="#136afb"/>
    <path id="Path_85" data-name="Path 85" d="M652.04,269.692H623.193a.73.73,0,0,1,0-1.458H652.04a.73.73,0,0,1,0,1.458Z" transform="translate(-444.456 -217.56)" fill="#136afb"/>
    <path id="Path_86" data-name="Path 86" d="M754.421,270.34H725.574a.73.73,0,0,1,0-1.458h28.847a.73.73,0,0,1,0,1.458Z" transform="translate(-510.244 -217.965)" fill="#136afb"/>
    <path id="Path_87" data-name="Path 87" d="M856.8,270.988H827.956a.73.73,0,0,1,0-1.458H856.8a.73.73,0,0,1,0,1.458Z" transform="translate(-576.031 -218.37)" fill="#136afb"/>
    <path id="Path_88" data-name="Path 88" d="M959.185,271.636H930.338a.73.73,0,0,1,0-1.458h28.847a.73.73,0,0,1,0,1.458Z" transform="translate(-641.818 -218.775)" fill="#136afb"/>
    <ellipse id="Ellipse_8" data-name="Ellipse 8" cx="5.361" cy="5.624" rx="5.361" ry="5.624" transform="translate(187.735 34.177)" fill="#136afb"/>
    <ellipse id="Ellipse_9" data-name="Ellipse 9" cx="5.361" cy="5.624" rx="5.361" ry="5.624" transform="translate(224.55 34.177)" fill="#136afb"/>
    <ellipse id="Ellipse_10" data-name="Ellipse 10" cx="5.361" cy="5.624" rx="5.361" ry="5.624" transform="translate(261.365 34.177)" fill="#136afb"/>
    <ellipse id="Ellipse_11" data-name="Ellipse 11" cx="5.361" cy="5.624" rx="5.361" ry="5.624" transform="translate(298.181 34.177)" fill="#136afb"/>
  </g>
</svg>
