<svg xmlns="http://www.w3.org/2000/svg" width="340.065" height="237.126" viewBox="0 0 340.065 237.126">
  <g id="Group_42" data-name="Group 42" transform="translate(-0.002 0)">
    <path id="Path_10" data-name="Path 10" d="M868.394,616.169l.581-11.92a45.483,45.483,0,0,1,19.69-4.546c-9.457,7.051-8.275,20.643-14.686,30.126a25.756,25.756,0,0,1-18.62,10.7l-7.914,4.419a36.354,36.354,0,0,1,8.968-31.445,39.9,39.9,0,0,1,7.553-6.4A98.913,98.913,0,0,0,868.394,616.169Z" transform="translate(-551.334 -411.756)" fill="#f2f2f2"/>
    <path id="Path_11" data-name="Path 11" d="M631.534,675.481c-4.031-.262-5.082.464-11.18,0h-11.18l1.454-24.4,17.6,6.432,87.466,1.958-.051.135c-.04.1-3.923,10.464-.887,14.387l.126.162-.246,0-80.237.671C633.523,674.836,632.4,675.538,631.534,675.481Z" transform="translate(-434.478 -439.322)" fill="#f2f2f2"/>
    <path id="Path_12" data-name="Path 12" d="M634.387,673.933c-7.786-.505-15.849,2.255-22.578-.861l-5.379.3-.015-.041c-.042-.113-2.583-18.347,2.554-25.417l.226-.311.177,1.675-1.693,22.714,3.753-1.142c9.115,3.913,19.956,1.329,30.389,1.293l71-.239c1.487,0,2.726.922,2.766,2.067l0,.112-76.916-.005Q636.524,674.072,634.387,673.933Z" transform="translate(-432.794 -437.454)" fill="#ccc"/>
    <path id="Path_13" data-name="Path 13" d="M447.992,475.433l-79.9-1.448-.082-.028L349.132,467.5l.357-.868,18.8,6.425,79.727,1.445Z" transform="translate(-171.707 -250.362)" fill="#e6e6e6"/>
    <path id="Path_14" data-name="Path 14" d="M447.153,483.852l-79.9-1.448-.081-.028-18.878-6.452.357-.868,18.8,6.425,79.727,1.445Z" transform="translate(-171.294 -254.879)" fill="#e6e6e6"/>
    <path id="Path_15" data-name="Path 15" d="M446.314,492.271l-79.9-1.449-.081-.028-18.878-6.453.357-.868,18.8,6.426,79.727,1.445Z" transform="translate(-170.882 -259.396)" fill="#e6e6e6"/>
    <path id="Path_16" data-name="Path 16" d="M637.3,658.02a57.449,57.449,0,0,1-21.208-5.458l-5.538-2.679.145-1.324a.869.869,0,0,1,.934-.65l.489.005,74.515,1a47.448,47.448,0,0,1,14.3,2.366l16.235,5.376-.009.078c-.136,1.248-1.516,2.212-3.141,2.195l-73.4-.784Q638.956,658.128,637.3,658.02Z" transform="translate(-435.158 -437.619)" fill="#e6e6e6"/>
    <path id="Path_17" data-name="Path 17" d="M452.485,462.887h-.017l-89.357-1.867-.062-.026-16.111-6.8.164-.228.489.006,15.669,6.621,88.528,1.848.709.015Z" transform="translate(-170.628 -243.562)" fill="#ccc"/>
    <path id="Path_18" data-name="Path 18" d="M656.292,648.751l-1.134-.015-25.608-.345-1.214-.016c5.851,5.681,18.789,7.1,37.752,4.9Z" transform="translate(-443.902 -437.871)" fill="#ccc"/>
    <path id="Path_19" data-name="Path 19" d="M533.446,155.2l1.562,3.314-2.553,11.77-26.047-3.3.208-14.352.523-3.143Z" transform="translate(-249.057 -80.203)" fill="#ffb6b6"/>
    <path id="Path_20" data-name="Path 20" d="M577.886,467.542h-5.747L569.4,447.327h8.482Z" transform="translate(-280.04 -240.003)" fill="#ffb6b6"/>
    <path id="Path_21" data-name="Path 21" d="M817.87,687.235a2.357,2.357,0,0,0,2.455,2.239h10.933l1.885-3.548.732,3.548H838L836.837,676.8l-1.873-.1-6.293-.342-1.014-.058v3.59l-8.725,5.5a2.192,2.192,0,0,0-1.06,1.845Z" transform="translate(-537.118 -452.854)" fill="#2f2e41"/>
    <path id="Path_22" data-name="Path 22" d="M472.743,405.81H467l-3.38-29.761,10.8-.588Z" transform="translate(-228.012 -201.445)" fill="#ffb6b6"/>
    <path id="Path_23" data-name="Path 23" d="M713.352,637.235a2.356,2.356,0,0,0,2.455,2.239H726.74l1.884-3.548.732,3.548h4.121L732.318,626.8l-1.671-.089-6.4-.352-1.107-.058v3.59l-8.725,5.5a2.192,2.192,0,0,0-1.06,1.845Z" transform="translate(-485.714 -426.027)" fill="#2f2e41"/>
    <path id="Path_24" data-name="Path 24" d="M789.674,499.716h-.022l-1.105-32.869a7.933,7.933,0,0,0-.124-8.122l-.158-.261.41-1.734a10.15,10.15,0,0,0-.692-6.649l-1.031-30.661c3.683-21.771-13.871-35.97-13.871-35.97l1.613-11.411-28.393.589.483,10.822-5.645,17.69c-2.971,26.4-22.967,42.993-19.928,68.238a.444.444,0,0,1-.035.213,5.946,5.946,0,0,0,.571,5.2,1.861,1.861,0,0,1,.257.645c.626,4.426.708-1.173,1.538,3.214l-.161.074a1.2,1.2,0,0,0-.557,1.641,1.368,1.368,0,0,0,1.548.978l15.178.148a1.2,1.2,0,0,0,.557-1.641,1.368,1.368,0,0,0-1.548-.978l-.944.436,1.58-4.714.554-.471a2.1,2.1,0,0,0,.757-1.783,2.169,2.169,0,0,0-1.063-1.648h0l1.574-7.66-.223-5.793.46-6.572,19.915-26.319,8.057,36.354,8.23,39.378a1.306,1.306,0,0,0-.472,1.276,1.54,1.54,0,0,0,1.558,1.128h11.173a1.576,1.576,0,0,0,1.21-.548,1.292,1.292,0,0,0,.256-1.209A1.531,1.531,0,0,0,789.674,499.716Z" transform="translate(-489.388 -289.609)" fill="#2f2e41"/>
    <path id="Path_25" data-name="Path 25" d="M809.546,220.034c0,5.774-4.228,10.837-10.332,12.367a14.674,14.674,0,0,1-15.811-5.815,11.975,11.975,0,0,1,1.965-15.444l.067-.061c.112-.108.225-.215.343-.318h0a0,0,0,0,0,0,0,2.872,2.872,0,0,0,.444-.364c1.9-2.418,4.049-4.446,9.261-3.179C802.992,209.038,809.546,212.952,809.546,220.034Z" transform="translate(-519.197 -200.967)" fill="#2f2e41"/>
    <path id="Path_26" data-name="Path 26" d="M684.8,218.215a4.5,4.5,0,0,0,1.675,3.668,5.483,5.483,0,0,0,4.159,1.184L726.886,250.2l5.537-8.877-37.376-23.881a5.127,5.127,0,0,0-5.5-3.766,4.94,4.94,0,0,0-4.748,4.536Z" transform="translate(-471.669 -204.635)" fill="#ffb6b6"/>
    <path id="Path_27" data-name="Path 27" d="M763.165,276.708s-.011-.977-5.774-.94c-7.154.047-26.855-9.32-25.132-18.142a4.3,4.3,0,0,1-4.823-1.055l9.591-8.422c3.01.185,3.041,2.022,2.783,3.077l7.708,2.793,20.077,10.52-3.545,10.567Z" transform="translate(-492.641 -223.139)" fill="#136afb"/>
    <ellipse id="Ellipse_7" data-name="Ellipse 7" cx="11.788" cy="10.75" rx="11.788" ry="10.75" transform="translate(261.041 11.283)" fill="#ffb7b7"/>
    <path id="Path_28" data-name="Path 28" d="M766.8,311.385a4.027,4.027,0,0,0,.231,5.435,4.449,4.449,0,0,0,.547,1.75,1.981,1.981,0,0,0,.225.31.8.8,0,0,0,.052.068A3.955,3.955,0,0,0,769.9,320.2l21.577,5.493,2.853.725.5.126.277-3.553a2.993,2.993,0,0,0,.766-4.084l-.4-.6,2.317-5.682.225-.562,5.907-14.5.006-.967.012-1,.058-6.97a13.827,13.827,0,0,0-6.167-11.343,16.021,16.021,0,0,0-5.907-2.523l-.046-.005-2.334-2.865-9.469.862-.784,1.466-.951,1.766-6.864,3.727-2.346,4.972-1.585,3.364a9.128,9.128,0,0,0-4.34,6.134c-.9,5.225,3.112,10.454,3.59,11.054l.121,6Z" transform="translate(-510.169 -235.879)" fill="#136afb"/>
    <path id="Path_29" data-name="Path 29" d="M800.611,229.027c-.107-.015-.214-.036-.321-.051-1.839-.3-3.677-.59-5.51-.892l-.169-3.79-2.221,3.395c-5.066,1.533-9.806.667-14.265-1.246a41.578,41.578,0,0,1-4.273-2.149c-.453-6.409,2.388-10.512,7.675-10.082.193.016.332-.164.5-.241h0a0,0,0,0,0,0,0c.287-.123.579-.241.872-.349a13.934,13.934,0,0,1,13.63,2.41A13.336,13.336,0,0,1,800.611,229.027Z" transform="translate(-515.445 -204.175)" fill="#2f2e41"/>
    <path id="Path_30" data-name="Path 30" d="M807.764,229.818s-3.492-11.887-18.46-14.631c-.017-.005-.073-.026-.146-.056-.045-.026-.1-.051-.157-.077.169-.087.332-.164.5-.241h0a0,0,0,0,0,0,0c.146-.123.292-.246.444-.364l.427.015S805.4,212.29,807.764,229.818Z" transform="translate(-522.919 -205.017)" fill="#fd6584"/>
    <path id="Path_31" data-name="Path 31" d="M829.7,391.841a2.141,2.141,0,0,1-2.041.3,4.736,4.736,0,0,1-1.744-1.163,14.687,14.687,0,0,1-4.024-6.614l.647-1.049a5.683,5.683,0,0,1,3.8-6.338,4.245,4.245,0,0,1,2.4-.19,2.186,2.186,0,0,1,1.654,1.494c.249,1.122-.776,2.136-1.814,2.78a13.719,13.719,0,0,1-6.076,1.983,20.41,20.41,0,0,1,6.743,5.519,4.389,4.389,0,0,1,.892,1.6,1.7,1.7,0,0,1-.441,1.681Z" transform="translate(-539.093 -292.107)" fill="#2f2e41"/>
    <path id="f02c4e45-f306-4b42-b3ad-5ddd3016d7d2" d="M543.446,704.207H741.274a.58.58,0,1,0,0-1.156H543.446a.58.58,0,1,0,0,1.156Z" transform="translate(-401.841 -467.205)" fill="#ccc"/>
    <path id="Path_32" data-name="Path 32" d="M627.068,369.581v.3c-.713-.761-1.44-1.516-2.159-2.271l-.907-.945q-1.922-1.989-3.865-3.965c-1.3-1.313-2.606-2.626-3.923-3.932-.317-.315-.633-.63-.957-.945a7.207,7.207,0,0,0-.842-.735,3.226,3.226,0,0,0-1.029-.519,2.822,2.822,0,0,0-1.324-.013c-.5.105-.972.269-1.454.407s-.986.3-1.483.44l-2.973.886a.1.1,0,0,1-.128-.049v0a.084.084,0,0,1,0-.078.1.1,0,0,1,.068-.047c.245-.072.5-.144.749-.217,1-.3,1.994-.6,2.994-.893.5-.151.993-.3,1.49-.44a4.83,4.83,0,0,1,1.44-.263,3.4,3.4,0,0,1,2.116.906c.309.263.59.538.871.821l.993.985q2,1.989,3.966,3.991t3.916,4.024l.281.3C625.635,368.072,626.348,368.827,627.068,369.581Z" transform="translate(-432.923 -281.165)" fill="#fff"/>
    <path id="Path_33" data-name="Path 33" d="M620.913,359.788a2.429,2.429,0,0,0-1.048-.71l-.409.013a41.437,41.437,0,0,0,12.364,11.474Z" transform="translate(-439.535 -282.655)" fill="#fff"/>
    <path id="Path_34" data-name="Path 34" d="M513.836,365.133,497.529,285.5a6.322,6.322,0,0,0-6.142-4.773q-.2,0-.4,0l-11.108.363-1.2.04-5.544.182-1.2.037-3.566.118-71.907,2.354c-.108.005-.22.005-.328,0l-16.113-.307-5.963-.112-.19,0-4.4-.086-38.351-.727-10.168-.2-5.014-.094-1.2-.024-5.717-.107-1.2-.024-5.849-.11-1.2-.024-6.426-.123-1.008-.019-5.731-.11-.905-.016h-.132a6.3,6.3,0,0,0-6.335,4.912L265.5,369.291a5.5,5.5,0,0,0,1.444,4.732,6.686,6.686,0,0,0,4.888,2.061h84.695a6.254,6.254,0,0,1,3.464,1.042l1.606,1.085a6.9,6.9,0,0,0,3.818,1.149,106.931,106.931,0,0,1,49.913,0,6.7,6.7,0,0,0,4.539-1.716,6.094,6.094,0,0,1,3.809-1.547l84.191-4.046a6.63,6.63,0,0,0,4.706-2.224,5.471,5.471,0,0,0,1.265-4.695Z" transform="translate(-265.412 -240.618)" fill="#ccc"/>
    <path id="Path_35" data-name="Path 35" d="M525.817,316.4c-.225,5.619-5.4,10.009-11.561,9.807-4.889-.158-10.723-.236-17.055-.116-20.678.4-46.657,3-62.283,12.333a11.982,11.982,0,0,1-6.632,1.659c-.173-.009-.34-.019-.513-.032a11.677,11.677,0,0,1-6.525-2.637c-8.609-7.184-28.352-15.883-73.545-16.495-.188,0-.371-.009-.554-.019-6.156-.353-10.831-5.194-10.438-10.808l4.442-64.288.666-9.636,1.169-16.857a7.09,7.09,0,0,1,7.318-6.271h.046l26.924.144q17.014.7,28.184,3.953a51.544,51.544,0,0,1,7.4,2.716,28.4,28.4,0,0,1,8.609,5.863,10.02,10.02,0,0,0,5.844,2.878,10.157,10.157,0,0,0,1.057.088,10.377,10.377,0,0,0,5.859-1.529c17.588-10.748,53.431-11.564,73.225-11.1,5.735.122,10.432,4.2,10.855,9.413l.8,9.589.8,9.561,4.6,55.26,1.281,15.373A9.632,9.632,0,0,1,525.817,316.4Z" transform="translate(-300.466 -204.301)" fill="#f2f2f2"/>
    <path id="Path_36" data-name="Path 36" d="M370.262,256.278a74.627,74.627,0,0,1,49.7,3.18,66.809,66.809,0,0,1,12.35,6.937c1.081.774,2.62-.61,1.527-1.393a75.624,75.624,0,0,0-49.652-13.279,73.733,73.733,0,0,0-14.5,2.656.993.993,0,1,0,.574,1.9Z" transform="translate(-316.326 -224.919)" fill="#3f3d56"/>
    <path id="Path_37" data-name="Path 37" d="M545.65,275.031a74.514,74.514,0,0,1,49.55-4.7,69.134,69.134,0,0,1,13.473,4.886c1.226.6,2.318-1.1,1.09-1.7a76.965,76.965,0,0,0-51.466-5.118,71.938,71.938,0,0,0-13.737,4.936C543.33,273.92,544.42,275.62,545.65,275.031Z" transform="translate(-402.434 -232.79)" fill="#3f3d56"/>
    <path id="Path_38" data-name="Path 38" d="M545.65,303.359a74.514,74.514,0,0,1,49.55-4.7,69.128,69.128,0,0,1,13.473,4.886c1.226.6,2.318-1.1,1.09-1.7a76.965,76.965,0,0,0-51.466-5.118,71.942,71.942,0,0,0-13.737,4.936c-1.231.59-.14,2.29,1.09,1.7Z" transform="translate(-402.434 -247.989)" fill="#3f3d56"/>
    <path id="Path_39" data-name="Path 39" d="M610.3,330.986a.837.837,0,0,0-.532-.816A76.715,76.715,0,0,0,569,323.206c-.088.006-.169.019-.264.026h0a2.347,2.347,0,0,0-.257.035,73.068,73.068,0,0,0-23.906,6.72.98.98,0,0,0-.532.855v24.493a.968.968,0,0,0,.431.776,1.174,1.174,0,0,0,.936.169c.331-.087.663-.17,1-.251a116.6,116.6,0,0,1,23.046-3.288l.5-.019a132.313,132.313,0,0,1,19.011.623q.2.01.395.039c.324.032.655.067.98.106.13.013.254.026.374.045,1.261.145,2.512.309,3.767.485q2.717.4,5.434.881c.113.019.229.045.345.064,2.907.527,5.8,1.138,8.679,1.813a1.178,1.178,0,0,0,.937-.173.972.972,0,0,0,.43-.778v-24.8a.075.075,0,0,0-.007-.039Z" transform="translate(-402.443 -263.191)" fill="#3f3d56"/>
    <path id="Path_40" data-name="Path 40" d="M591.826,326.174a3.864,3.864,0,0,0-2.544-.2,2.92,2.92,0,0,0-1.695,1.454,6.5,6.5,0,0,0-.558,2c-.045.271-.047.612.251.738a.678.678,0,0,0,.641-.116,1.74,1.74,0,0,0,.375-.478,5.855,5.855,0,0,1,4.815-2.387l.8.29A9.53,9.53,0,0,0,591.826,326.174Z" transform="translate(-423.576 -264.824)" fill="#ff6582"/>
    <path id="Path_41" data-name="Path 41" d="M597.647,336.337a4.576,4.576,0,0,0-2.5-1.989,5.723,5.723,0,0,0-3.854.926,114.191,114.191,0,0,0-9.994,5.978l0,.032,7.458-.418a15.417,15.417,0,0,0,5.241-.9,5.245,5.245,0,0,1,1.872-.636,3.254,3.254,0,0,1,2.168.953c3.437,2.971,4.432,7.515,8.288,10.125a93.561,93.561,0,0,0-8.682-14.067Z" transform="translate(-420.769 -269.341)" fill="#fff"/>
    <path id="Path_42" data-name="Path 42" d="M580.606,384.355l-.5.02c-1.2-.394-2.433-.742-3.678-1.044-.806-.2-1.627-.374-2.447-.525-.929-.184-1.864-.328-2.8-.453a49.015,49.015,0,0,0-5.377-.414.1.1,0,0,1-.093-.041.083.083,0,0,1,0-.095.1.1,0,0,1,.093-.041c.23,0,.461.007.684.02a49.031,49.031,0,0,1,5.384.479c.929.138,1.857.3,2.779.486.835.171,1.67.361,2.491.571Q578.9,383.771,580.606,384.355Z" transform="translate(-413.093 -294.825)" fill="#fff"/>
    <path id="Path_43" data-name="Path 43" d="M600.957,378.573c-.122-.02-.245-.033-.374-.046-.5-.374-1-.729-1.526-1.077-.655-.433-1.332-.84-2.023-1.221a37.359,37.359,0,0,0-4.78-2.219,51.052,51.052,0,0,0-8.076-2.324,87.571,87.571,0,0,0-9.552-1.365c-3.211-.3-6.435-.486-9.66-.67-.137-.007-.144-.19,0-.184.4.026.806.046,1.216.072,3.261.184,6.521.394,9.761.729a80.972,80.972,0,0,1,9.537,1.51,49.5,49.5,0,0,1,7.817,2.449,36.81,36.81,0,0,1,4.2,2.042c.857.492,1.684,1.018,2.476,1.576C600.31,378.081,600.641,378.317,600.957,378.573Z" transform="translate(-412.685 -288.229)" fill="#fff"/>
    <path id="Path_44" data-name="Path 44" d="M599.293,379.129c-.131-.019-.263-.032-.4-.039-.151-.112-.31-.217-.468-.322a33.558,33.558,0,0,0-3.462-1.976q-1.632-.809-3.347-1.464A50.368,50.368,0,0,0,583.544,373a87.562,87.562,0,0,0-9.552-1.365c-3.21-.3-6.435-.486-9.66-.67-.137-.013-.137-.19,0-.184.41.026.813.046,1.216.072,3.261.184,6.521.394,9.761.729a80.964,80.964,0,0,1,9.537,1.51,49.247,49.247,0,0,1,7.817,2.449q1.425.591,2.786,1.287A29.889,29.889,0,0,1,599.293,379.129Z" transform="translate(-412.374 -288.936)" fill="#fff"/>
    <path id="Path_45" data-name="Path 45" d="M610.6,358.87c-.115-.02-.23-.046-.345-.066-.13-.125-.252-.256-.374-.387q-.929-.975-1.836-1.969c-2.382-2.586-4.643-5.252-6.773-7.969q-2.743-3.486-5.2-7.11c-.785-1.142-1.541-2.3-2.282-3.466q-.864-1.359-1.684-2.724c-.158-.263-.309-.525-.461-.788-.353-.617-.706-1.241-1.08-1.851a5.383,5.383,0,0,0-1.742-1.891,2.715,2.715,0,0,0-1.238-.387,4.031,4.031,0,0,0-1.785.42,59.406,59.406,0,0,0-11.322,6.335,52.68,52.68,0,0,0-9.2,8.291c-.086.092-.273.007-.194-.092.324-.368.655-.735.986-1.1a53.4,53.4,0,0,1,8.7-7.543c.007-.007.022-.013.029-.02.281-.2.561-.4.849-.591a59.779,59.779,0,0,1,5.557-3.309q1.468-.778,3-1.477c.252-.118.511-.236.77-.348s.518-.23.777-.341a4.556,4.556,0,0,1,1.648-.414c2-.026,3.03,1.812,3.743,3.052.223.387.454.775.677,1.162.864,1.464,1.764,2.921,2.7,4.359.568.893,1.159,1.779,1.756,2.659.857,1.254,1.735,2.495,2.649,3.729a.006.006,0,0,0,0,0l.005,0h0c1.058,1.457,2.159,2.888,3.3,4.313q2.926,3.653,6.133,7.142Q609.462,357.7,610.6,358.87Z" transform="translate(-412.782 -267.095)" fill="#fff"/>
    <path id="Path_46" data-name="Path 46" d="M593.882,326.708l-.2.079a5.528,5.528,0,0,0-4.389-2.423c-2.947-.191-5.536,1.6-5.771,3.992a3.712,3.712,0,0,0,.876,2.752l-.185.1a3.865,3.865,0,0,1-.913-2.866c.245-2.491,2.941-4.356,6.01-4.158A5.756,5.756,0,0,1,593.882,326.708Z" transform="translate(-421.745 -263.926)" fill="#ff6582"/>
    <path id="Path_47" data-name="Path 47" d="M570.8,339.623a5.768,5.768,0,0,0-4.841.281q3.968.555,7.855,1.488C572.742,340.883,571.9,340.084,570.8,339.623Z" transform="translate(-413.224 -272.001)" fill="#fff"/>
    <path id="Path_48" data-name="Path 48" d="M565.648,340.69l-.291.192c.1-.067.2-.13.306-.19Z" transform="translate(-412.928 -272.789)" fill="#fff"/>
    <path id="Path_49" data-name="Path 49" d="M565.821,339.653l-.348-.315a10.117,10.117,0,0,0-3.175-2.119,5.506,5.506,0,0,0-1.93-.363,6.608,6.608,0,0,0-2,.355c-.3.1-.6.209-.887.327-.332.136-.658.28-.983.426q-.914.411-1.8.857-1.771.889-3.432,1.913-.861.531-1.686,1.1-.768.526-1.5,1.08c-.1.079-.262-.049-.157-.127.129-.1.26-.2.391-.291q.555-.407,1.127-.8,1.044-.715,2.142-1.375,1.707-1.027,3.532-1.914.912-.443,1.849-.849c.189-.082.379-.162.572-.237a10.43,10.43,0,0,1,1.361-.45,5.911,5.911,0,0,1,2.055-.164,6.217,6.217,0,0,1,1.9.533,12.319,12.319,0,0,1,3.144,2.286C566.072,339.612,565.916,339.739,565.821,339.653Z" transform="translate(-404.33 -270.637)" fill="#fff"/>
    <path id="Path_50" data-name="Path 50" d="M370.262,284.607a74.627,74.627,0,0,1,49.7,3.18,66.807,66.807,0,0,1,12.35,6.937c1.081.774,2.62-.61,1.527-1.393a75.624,75.624,0,0,0-49.652-13.279,73.736,73.736,0,0,0-14.5,2.656.993.993,0,1,0,.574,1.9Z" transform="translate(-316.326 -240.117)" fill="#3f3d56"/>
    <path id="Path_51" data-name="Path 51" d="M370.262,312.935a74.628,74.628,0,0,1,49.7,3.18,66.813,66.813,0,0,1,12.35,6.937c1.081.774,2.62-.61,1.527-1.393a75.624,75.624,0,0,0-49.652-13.279,73.732,73.732,0,0,0-14.5,2.656.993.993,0,1,0,.574,1.9Z" transform="translate(-316.326 -255.316)" fill="#3f3d56"/>
    <path id="Path_52" data-name="Path 52" d="M370.262,341.263a74.627,74.627,0,0,1,49.7,3.18,66.811,66.811,0,0,1,12.35,6.937c1.081.774,2.62-.61,1.527-1.393a75.624,75.624,0,0,0-49.652-13.279,73.731,73.731,0,0,0-14.5,2.656.993.993,0,1,0,.574,1.9Z" transform="translate(-316.326 -270.515)" fill="#3f3d56"/>
    <path id="Path_53" data-name="Path 53" d="M370.262,369.591a74.627,74.627,0,0,1,49.7,3.18,66.811,66.811,0,0,1,12.35,6.937c1.081.774,2.62-.61,1.527-1.393a75.624,75.624,0,0,0-49.652-13.279,73.731,73.731,0,0,0-14.5,2.656.993.993,0,1,0,.574,1.9Z" transform="translate(-316.326 -285.714)" fill="#3f3d56"/>
    <path id="Path_54" data-name="Path 54" d="M370.262,397.919a74.628,74.628,0,0,1,49.7,3.18,66.81,66.81,0,0,1,12.35,6.937c1.081.774,2.62-.61,1.527-1.393a75.624,75.624,0,0,0-49.652-13.279,73.731,73.731,0,0,0-14.5,2.656.993.993,0,1,0,.574,1.9Z" transform="translate(-316.326 -300.913)" fill="#3f3d56"/>
    <path id="Path_55" data-name="Path 55" d="M479.413,224.595v31.484c0,.626-1.2,1.149-2.815,1.293a.122.122,0,0,0-.041,0c-.269.019-.554.032-.844.032a8.055,8.055,0,0,1-2.617-.389c-.076-.028-.152-.06-.229-.088s-.147-.07-.219-.107c-.4-.218-.635-.473-.635-.746v-34.2a51.54,51.54,0,0,1,7.4,2.716Z" transform="translate(-367.021 -209.044)" fill="#136afb"/>
    <rect id="Rectangle_23" data-name="Rectangle 23" width="1.057" height="112.269" transform="translate(126.844 22.853)" fill="#e6e6e6"/>
    <path id="Path_56" data-name="Path 56" d="M737.813,364.668a5.264,5.264,0,0,0,3.764-2,4.358,4.358,0,0,0,.733-3.917l21.942-9.341,13.21-19.489L767.079,326.1l-8.912,15.7-22.556,13.708a4.674,4.674,0,0,0-3.36,5.472A5.144,5.144,0,0,0,737.813,364.668Z" transform="translate(-494.95 -264.959)" fill="#ffb6b6"/>
    <path id="Path_57" data-name="Path 57" d="M809.246,293.384s2.586.77-.252,5.344c-2.272,3.662-13.341,24.758-17.859,28.9a3.445,3.445,0,0,1-.5,4.5L780.2,324.579c-.2-2.745,1.793-3.018,2.973-2.925l2.4-7.756,8.369-19.132,13.445-1.97Z" transform="translate(-518.585 -247.093)" fill="#136afb"/>
    <path id="Path_58" data-name="Path 58" d="M826.664,204.618c.493-1.818,4.07-3.161-2.058-5.7-1.487-.616-1.426-2.738-2.683-3.688a4.679,4.679,0,0,0-4.562-.727,4.04,4.04,0,0,0-2.2,3.258,11,11,0,0,0,.5,3.945l-.119.158,7.282,5.082c.892.623,2.058,1.274,3.058.807C827.014,207.226,826.359,205.744,826.664,204.618Z" transform="translate(-535.777 -194.186)" fill="#2f2e41"/>
  </g>
</svg>
